<svg width="233" height="77" viewBox="0 0 233 77" fill="none" xmlns="http://www.w3.org/2000/svg">
<path d="M47.1035 27.3516C44.3145 27.3516 42.041 26.4961 40.2832 24.7852C38.5371 23.0742 37.6641 20.7949 37.6641 17.9473V17.4551C37.6641 15.5449 38.0332 13.8398 38.7715 12.3398C39.5098 10.8281 40.5527 9.66797 41.9004 8.85938C43.2598 8.03906 44.8066 7.62891 46.541 7.62891C49.1426 7.62891 51.1875 8.44922 52.6758 10.0898C54.1758 11.7305 54.9258 14.0566 54.9258 17.0684V19.1426H42.8145C42.9785 20.3848 43.4707 21.3809 44.291 22.1309C45.123 22.8809 46.1719 23.2559 47.4375 23.2559C49.3945 23.2559 50.9238 22.5469 52.0254 21.1289L54.5215 23.9238C53.7598 25.002 52.7285 25.8457 51.4277 26.4551C50.127 27.0527 48.6855 27.3516 47.1035 27.3516ZM46.5234 11.7422C45.5156 11.7422 44.6953 12.082 44.0625 12.7617C43.4414 13.4414 43.043 14.4141 42.8672 15.6797H49.9336V15.2754C49.9102 14.1504 49.6055 13.2832 49.0195 12.6738C48.4336 12.0527 47.6016 11.7422 46.5234 11.7422ZM78.4102 23.7656C77.4609 24.9023 76.1191 25.7871 74.3848 26.4199C72.6504 27.041 70.7285 27.3516 68.6191 27.3516C66.4043 27.3516 64.459 26.8711 62.7832 25.9102C61.1191 24.9375 59.8301 23.5312 58.916 21.6914C58.0137 19.8516 57.5508 17.6895 57.5273 15.2051V13.4648C57.5273 10.9102 57.9551 8.70117 58.8105 6.83789C59.6777 4.96289 60.9199 3.5332 62.5371 2.54883C64.166 1.55273 66.0703 1.05469 68.25 1.05469C71.2852 1.05469 73.6582 1.78125 75.3691 3.23438C77.0801 4.67578 78.0938 6.7793 78.4102 9.54492H73.2773C73.043 8.08008 72.5215 7.00781 71.7129 6.32812C70.916 5.64844 69.8145 5.30859 68.4082 5.30859C66.6152 5.30859 65.25 5.98242 64.3125 7.33008C63.375 8.67773 62.9004 10.6816 62.8887 13.3418V14.9766C62.8887 17.6602 63.3984 19.6875 64.418 21.0586C65.4375 22.4297 66.9316 23.1152 68.9004 23.1152C70.8809 23.1152 72.293 22.6934 73.1367 21.8496V17.4375H68.3379V13.5527H78.4102V23.7656ZM93.0527 12.7441C92.3613 12.6504 91.752 12.6035 91.2246 12.6035C89.3027 12.6035 88.043 13.2539 87.4453 14.5547V27H82.3652V7.98047H87.1641L87.3047 10.248C88.3242 8.50195 89.7363 7.62891 91.541 7.62891C92.1035 7.62891 92.6309 7.70508 93.123 7.85742L93.0527 12.7441ZM103.916 27.3516C101.127 27.3516 98.8535 26.4961 97.0957 24.7852C95.3496 23.0742 94.4766 20.7949 94.4766 17.9473V17.4551C94.4766 15.5449 94.8457 13.8398 95.584 12.3398C96.3223 10.8281 97.3652 9.66797 98.7129 8.85938C100.072 8.03906 101.619 7.62891 103.354 7.62891C105.955 7.62891 108 8.44922 109.488 10.0898C110.988 11.7305 111.738 14.0566 111.738 17.0684V19.1426H99.627C99.791 20.3848 100.283 21.3809 101.104 22.1309C101.936 22.8809 102.984 23.2559 104.25 23.2559C106.207 23.2559 107.736 22.5469 108.838 21.1289L111.334 23.9238C110.572 25.002 109.541 25.8457 108.24 26.4551C106.939 27.0527 105.498 27.3516 103.916 27.3516ZM103.336 11.7422C102.328 11.7422 101.508 12.082 100.875 12.7617C100.254 13.4414 99.8555 14.4141 99.6797 15.6797H106.746V15.2754C106.723 14.1504 106.418 13.2832 105.832 12.6738C105.246 12.0527 104.414 11.7422 103.336 11.7422ZM123.393 27.3516C120.604 27.3516 118.33 26.4961 116.572 24.7852C114.826 23.0742 113.953 20.7949 113.953 17.9473V17.4551C113.953 15.5449 114.322 13.8398 115.061 12.3398C115.799 10.8281 116.842 9.66797 118.189 8.85938C119.549 8.03906 121.096 7.62891 122.83 7.62891C125.432 7.62891 127.477 8.44922 128.965 10.0898C130.465 11.7305 131.215 14.0566 131.215 17.0684V19.1426H119.104C119.268 20.3848 119.76 21.3809 120.58 22.1309C121.412 22.8809 122.461 23.2559 123.727 23.2559C125.684 23.2559 127.213 22.5469 128.314 21.1289L130.811 23.9238C130.049 25.002 129.018 25.8457 127.717 26.4551C126.416 27.0527 124.975 27.3516 123.393 27.3516ZM122.812 11.7422C121.805 11.7422 120.984 12.082 120.352 12.7617C119.73 13.4414 119.332 14.4141 119.156 15.6797H126.223V15.2754C126.199 14.1504 125.895 13.2832 125.309 12.6738C124.723 12.0527 123.891 11.7422 122.812 11.7422ZM140.197 3.30469V7.98047H143.449V11.707H140.197V21.1992C140.197 21.9023 140.332 22.4062 140.602 22.7109C140.871 23.0156 141.387 23.168 142.148 23.168C142.711 23.168 143.209 23.127 143.643 23.0449V26.8945C142.646 27.1992 141.621 27.3516 140.566 27.3516C137.004 27.3516 135.188 25.5527 135.117 21.9551V11.707H132.34V7.98047H135.117V3.30469H140.197ZM151.641 27H146.543V7.98047H151.641V27ZM146.244 3.05859C146.244 2.29688 146.496 1.66992 147 1.17773C147.516 0.685547 148.213 0.439453 149.092 0.439453C149.959 0.439453 150.65 0.685547 151.166 1.17773C151.682 1.66992 151.939 2.29688 151.939 3.05859C151.939 3.83203 151.676 4.46484 151.148 4.95703C150.633 5.44922 149.947 5.69531 149.092 5.69531C148.236 5.69531 147.545 5.44922 147.018 4.95703C146.502 4.46484 146.244 3.83203 146.244 3.05859ZM160.518 7.98047L160.676 10.1777C162.035 8.47852 163.857 7.62891 166.143 7.62891C168.158 7.62891 169.658 8.2207 170.643 9.4043C171.627 10.5879 172.131 12.3574 172.154 14.7129V27H167.074V14.8359C167.074 13.7578 166.84 12.9785 166.371 12.498C165.902 12.0059 165.123 11.7598 164.033 11.7598C162.604 11.7598 161.531 12.3691 160.816 13.5879V27H155.736V7.98047H160.518ZM175.283 17.3496C175.283 14.4316 175.975 12.082 177.357 10.3008C178.752 8.51953 180.627 7.62891 182.982 7.62891C185.068 7.62891 186.691 8.34375 187.852 9.77344L188.062 7.98047H192.668V26.3672C192.668 28.0312 192.287 29.4785 191.525 30.709C190.775 31.9395 189.715 32.877 188.344 33.5215C186.973 34.166 185.367 34.4883 183.527 34.4883C182.133 34.4883 180.773 34.207 179.449 33.6445C178.125 33.0938 177.123 32.3789 176.443 31.5L178.693 28.4062C179.959 29.8242 181.494 30.5332 183.299 30.5332C184.646 30.5332 185.695 30.1699 186.445 29.4434C187.195 28.7285 187.57 27.709 187.57 26.3848V25.3652C186.398 26.6895 184.857 27.3516 182.947 27.3516C180.662 27.3516 178.811 26.4609 177.393 24.6797C175.986 22.8867 175.283 20.5137 175.283 17.5605V17.3496ZM180.363 17.7188C180.363 19.4414 180.709 20.7949 181.4 21.7793C182.092 22.752 183.041 23.2383 184.248 23.2383C185.795 23.2383 186.902 22.6582 187.57 21.498V13.5C186.891 12.3398 185.795 11.7598 184.283 11.7598C183.064 11.7598 182.104 12.2578 181.4 13.2539C180.709 14.25 180.363 15.7383 180.363 17.7188ZM0.433594 69V43.4062H8.30859C10.5586 43.4062 12.5684 43.916 14.3379 44.9355C16.1191 45.9434 17.5078 47.3848 18.5039 49.2598C19.5 51.123 19.998 53.2441 19.998 55.623V56.8008C19.998 59.1797 19.5059 61.2949 18.5215 63.1465C17.5488 64.998 16.1719 66.4336 14.3906 67.4531C12.6094 68.4727 10.5996 68.9883 8.36133 69H0.433594ZM5.70703 47.6777V64.7637H8.25586C10.3184 64.7637 11.8945 64.0898 12.9844 62.7422C14.0742 61.3945 14.6309 59.4668 14.6543 56.959V55.6055C14.6543 53.0039 14.1152 51.0352 13.0371 49.6992C11.959 48.3516 10.3828 47.6777 8.30859 47.6777H5.70703ZM32.2676 69.3516C29.4785 69.3516 27.2051 68.4961 25.4473 66.7852C23.7012 65.0742 22.8281 62.7949 22.8281 59.9473V59.4551C22.8281 57.5449 23.1973 55.8398 23.9355 54.3398C24.6738 52.8281 25.7168 51.668 27.0645 50.8594C28.4238 50.0391 29.9707 49.6289 31.7051 49.6289C34.3066 49.6289 36.3516 50.4492 37.8398 52.0898C39.3398 53.7305 40.0898 56.0566 40.0898 59.0684V61.1426H27.9785C28.1426 62.3848 28.6348 63.3809 29.4551 64.1309C30.2871 64.8809 31.3359 65.2559 32.6016 65.2559C34.5586 65.2559 36.0879 64.5469 37.1895 63.1289L39.6855 65.9238C38.9238 67.002 37.8926 67.8457 36.5918 68.4551C35.291 69.0527 33.8496 69.3516 32.2676 69.3516ZM31.6875 53.7422C30.6797 53.7422 29.8594 54.082 29.2266 54.7617C28.6055 55.4414 28.207 56.4141 28.0312 57.6797H35.0977V57.2754C35.0742 56.1504 34.7695 55.2832 34.1836 54.6738C33.5977 54.0527 32.7656 53.7422 31.6875 53.7422ZM53.291 63.7441C53.291 63.123 52.9805 62.6367 52.3594 62.2852C51.75 61.9219 50.7656 61.5996 49.4062 61.3184C44.8828 60.3691 42.6211 58.4473 42.6211 55.5527C42.6211 53.8652 43.3184 52.459 44.7129 51.334C46.1191 50.1973 47.9531 49.6289 50.2148 49.6289C52.6289 49.6289 54.5566 50.1973 55.998 51.334C57.4512 52.4707 58.1777 53.9473 58.1777 55.7637H53.0977C53.0977 55.0371 52.8633 54.4395 52.3945 53.9707C51.9258 53.4902 51.1934 53.25 50.1973 53.25C49.3418 53.25 48.6797 53.4434 48.2109 53.8301C47.7422 54.2168 47.5078 54.709 47.5078 55.3066C47.5078 55.8691 47.7715 56.3262 48.2988 56.6777C48.8379 57.0176 49.7402 57.3164 51.0059 57.5742C52.2715 57.8203 53.3379 58.1016 54.2051 58.418C56.8887 59.4023 58.2305 61.1074 58.2305 63.5332C58.2305 65.2676 57.4863 66.6738 55.998 67.752C54.5098 68.8184 52.5879 69.3516 50.2324 69.3516C48.6387 69.3516 47.2207 69.0703 45.9785 68.5078C44.748 67.9336 43.7812 67.1543 43.0781 66.1699C42.375 65.1738 42.0234 64.1016 42.0234 62.9531H46.8398C46.8867 63.8555 47.2207 64.5469 47.8418 65.0273C48.4629 65.5078 49.2949 65.748 50.3379 65.748C51.3105 65.748 52.043 65.5664 52.5352 65.2031C53.0391 64.8281 53.291 64.3418 53.291 63.7441ZM66.8789 69H61.7812V49.9805H66.8789V69ZM61.4824 45.0586C61.4824 44.2969 61.7344 43.6699 62.2383 43.1777C62.7539 42.6855 63.4512 42.4395 64.3301 42.4395C65.1973 42.4395 65.8887 42.6855 66.4043 43.1777C66.9199 43.6699 67.1777 44.2969 67.1777 45.0586C67.1777 45.832 66.9141 46.4648 66.3867 46.957C65.8711 47.4492 65.1855 47.6953 64.3301 47.6953C63.4746 47.6953 62.7832 47.4492 62.2559 46.957C61.7402 46.4648 61.4824 45.832 61.4824 45.0586ZM70.3418 59.3496C70.3418 56.4316 71.0332 54.082 72.416 52.3008C73.8105 50.5195 75.6855 49.6289 78.041 49.6289C80.127 49.6289 81.75 50.3438 82.9102 51.7734L83.1211 49.9805H87.7266V68.3672C87.7266 70.0312 87.3457 71.4785 86.584 72.709C85.834 73.9395 84.7734 74.877 83.4023 75.5215C82.0312 76.166 80.4258 76.4883 78.5859 76.4883C77.1914 76.4883 75.832 76.207 74.5078 75.6445C73.1836 75.0938 72.1816 74.3789 71.502 73.5L73.752 70.4062C75.0176 71.8242 76.5527 72.5332 78.3574 72.5332C79.7051 72.5332 80.7539 72.1699 81.5039 71.4434C82.2539 70.7285 82.6289 69.709 82.6289 68.3848V67.3652C81.457 68.6895 79.916 69.3516 78.0059 69.3516C75.7207 69.3516 73.8691 68.4609 72.4512 66.6797C71.0449 64.8867 70.3418 62.5137 70.3418 59.5605V59.3496ZM75.4219 59.7188C75.4219 61.4414 75.7676 62.7949 76.459 63.7793C77.1504 64.752 78.0996 65.2383 79.3066 65.2383C80.8535 65.2383 81.9609 64.6582 82.6289 63.498V55.5C81.9492 54.3398 80.8535 53.7598 79.3418 53.7598C78.123 53.7598 77.1621 54.2578 76.459 55.2539C75.7676 56.25 75.4219 57.7383 75.4219 59.7188ZM96.3223 49.9805L96.4805 52.1777C97.8398 50.4785 99.6621 49.6289 101.947 49.6289C103.963 49.6289 105.463 50.2207 106.447 51.4043C107.432 52.5879 107.936 54.3574 107.959 56.7129V69H102.879V56.8359C102.879 55.7578 102.645 54.9785 102.176 54.498C101.707 54.0059 100.928 53.7598 99.8379 53.7598C98.4082 53.7598 97.3359 54.3691 96.6211 55.5879V69H91.541V49.9805H96.3223ZM141.059 61.6172L144.504 43.4062H149.76L144.082 69H138.773L134.607 51.8789L130.441 69H125.133L119.455 43.4062H124.711L128.174 61.582L132.393 43.4062H136.857L141.059 61.6172ZM157.652 69H152.555V49.9805H157.652V69ZM152.256 45.0586C152.256 44.2969 152.508 43.6699 153.012 43.1777C153.527 42.6855 154.225 42.4395 155.104 42.4395C155.971 42.4395 156.662 42.6855 157.178 43.1777C157.693 43.6699 157.951 44.2969 157.951 45.0586C157.951 45.832 157.688 46.4648 157.16 46.957C156.645 47.4492 155.959 47.6953 155.104 47.6953C154.248 47.6953 153.557 47.4492 153.029 46.957C152.514 46.4648 152.256 45.832 152.256 45.0586ZM166.529 49.9805L166.688 52.1777C168.047 50.4785 169.869 49.6289 172.154 49.6289C174.17 49.6289 175.67 50.2207 176.654 51.4043C177.639 52.5879 178.143 54.3574 178.166 56.7129V69H173.086V56.8359C173.086 55.7578 172.852 54.9785 172.383 54.498C171.914 54.0059 171.135 53.7598 170.045 53.7598C168.615 53.7598 167.543 54.3691 166.828 55.5879V69H161.748V49.9805H166.529ZM186.709 49.9805L186.867 52.1777C188.227 50.4785 190.049 49.6289 192.334 49.6289C194.35 49.6289 195.85 50.2207 196.834 51.4043C197.818 52.5879 198.322 54.3574 198.346 56.7129V69H193.266V56.8359C193.266 55.7578 193.031 54.9785 192.562 54.498C192.094 54.0059 191.314 53.7598 190.225 53.7598C188.795 53.7598 187.723 54.3691 187.008 55.5879V69H181.928V49.9805H186.709ZM210.967 69.3516C208.178 69.3516 205.904 68.4961 204.146 66.7852C202.4 65.0742 201.527 62.7949 201.527 59.9473V59.4551C201.527 57.5449 201.896 55.8398 202.635 54.3398C203.373 52.8281 204.416 51.668 205.764 50.8594C207.123 50.0391 208.67 49.6289 210.404 49.6289C213.006 49.6289 215.051 50.4492 216.539 52.0898C218.039 53.7305 218.789 56.0566 218.789 59.0684V61.1426H206.678C206.842 62.3848 207.334 63.3809 208.154 64.1309C208.986 64.8809 210.035 65.2559 211.301 65.2559C213.258 65.2559 214.787 64.5469 215.889 63.1289L218.385 65.9238C217.623 67.002 216.592 67.8457 215.291 68.4551C213.99 69.0527 212.549 69.3516 210.967 69.3516ZM210.387 53.7422C209.379 53.7422 208.559 54.082 207.926 54.7617C207.305 55.4414 206.906 56.4141 206.73 57.6797H213.797V57.2754C213.773 56.1504 213.469 55.2832 212.883 54.6738C212.297 54.0527 211.465 53.7422 210.387 53.7422ZM232.377 54.7441C231.686 54.6504 231.076 54.6035 230.549 54.6035C228.627 54.6035 227.367 55.2539 226.77 56.5547V69H221.689V49.9805H226.488L226.629 52.248C227.648 50.502 229.061 49.6289 230.865 49.6289C231.428 49.6289 231.955 49.7051 232.447 49.8574L232.377 54.7441Z" fill="url(#paint0_linear)"/>
<defs>
<linearGradient id="paint0_linear" x1="4.74654" y1="78" x2="242" y2="78" gradientUnits="userSpaceOnUse">
<stop stop-color="#EE3426"/>
<stop offset="0.526042" stop-color="#FBDC1D"/>
<stop offset="1" stop-color="#00AEEA"/>
</linearGradient>
</defs>
</svg>
