<svg width="74" height="74" viewBox="0 0 74 74" fill="none" xmlns="http://www.w3.org/2000/svg">
<path d="M73.4172 28.3566C73.4096 28.2723 73.3928 28.189 73.367 28.1082C73.3502 28.0361 73.3268 27.9656 73.2973 27.8977C73.263 27.8313 73.222 27.7684 73.175 27.7103C73.1278 27.6414 73.0731 27.5778 73.0122 27.5206C72.9925 27.5035 72.984 27.4801 72.9633 27.4631L61.1928 18.3216V8.8473C61.1928 6.8195 59.5488 5.17552 57.521 5.17552H44.2573L38.9465 1.05208C37.6346 0.0288626 35.7948 0.0288626 34.4829 1.05208L29.171 5.17552H15.9072C13.8794 5.17552 12.2355 6.81936 12.2355 8.8473V18.3218L0.468704 27.4632C0.447907 27.4804 0.439301 27.5037 0.419795 27.5207C0.358838 27.5778 0.304191 27.6415 0.257003 27.7105C0.209959 27.7686 0.168938 27.8313 0.134658 27.8978C0.104969 27.9656 0.0817331 28.0362 0.0649519 28.1084C0.0394216 28.188 0.0226404 28.27 0.0147518 28.3532C0.0147518 28.3789 0.00012207 28.401 0.00012207 28.4266V70.0435C0.00184322 70.8221 0.253704 71.5794 0.718557 72.2037C0.725872 72.2147 0.727163 72.2282 0.735625 72.238C0.744231 72.2477 0.76259 72.2588 0.774781 72.2723C1.46238 73.177 2.53179 73.7104 3.66817 73.7153H69.7602C70.901 73.7119 71.9749 73.1759 72.6633 72.2662C72.6731 72.254 72.6879 72.2503 72.6963 72.2381C72.7049 72.2259 72.7061 72.2149 72.7135 72.2038C73.1784 71.5794 73.4303 70.8221 73.432 70.0437V28.4301C73.4318 28.4044 73.4185 28.3823 73.4172 28.3566ZM35.9797 2.98335C36.4071 2.64371 37.0124 2.64371 37.4398 2.98335L40.2633 5.17538H33.1646L35.9797 2.98335ZM3.97654 71.2675L35.9798 46.4083C36.4075 46.0692 37.0124 46.0692 37.4399 46.4083L69.4517 71.2675H3.97654ZM70.9841 69.3594L38.9465 44.4769C37.6343 43.4545 35.7951 43.4545 34.4829 44.4769L2.44415 69.3594V30.2941L22.5007 45.8686C23.0351 46.283 23.8042 46.1857 24.2185 45.6513C24.6329 45.1169 24.5356 44.3478 24.0012 43.9334L3.62529 28.1118L12.2356 21.4206V30.8778C12.2356 31.5538 12.7837 32.1017 13.4595 32.1017C14.1355 32.1017 14.6834 31.5537 14.6834 30.8778V8.84716C14.6834 8.17118 15.2313 7.62328 15.9072 7.62328H57.5207C58.1967 7.62328 58.7446 8.17118 58.7446 8.84716V30.8778C58.7446 31.5538 59.2925 32.1017 59.9684 32.1017C60.6444 32.1017 61.1923 31.5537 61.1923 30.8778V21.4206L69.8027 28.1118L49.3913 43.9617C49.0402 44.2278 48.859 44.6621 48.9173 45.0988C48.9755 45.5355 49.2639 45.9073 49.6726 46.0721C50.0812 46.2369 50.5469 46.1695 50.8918 45.8954L70.9838 30.2941V69.3594H70.9841Z" fill="#5F7D95"/>
<path d="M51.4013 29.6545V24.7589C51.4013 16.6474 44.8257 10.0718 36.7142 10.0718C28.6027 10.0718 22.0271 16.6474 22.0271 24.7589C22.0271 32.8704 28.6027 39.446 36.7142 39.446C37.3902 39.446 37.9381 38.8981 37.9381 38.2221C37.9381 37.5461 37.3902 36.9982 36.7142 36.9982C29.9547 36.9982 24.475 31.5185 24.475 24.759C24.475 17.9995 29.9547 12.5198 36.7142 12.5198C43.4737 12.5198 48.9534 17.9995 48.9534 24.759V29.6547C48.9534 31.0067 47.8575 32.1026 46.5055 32.1026C45.1535 32.1026 44.0576 31.0067 44.0576 29.6547V24.759C44.0576 24.0831 43.5097 23.5352 42.8337 23.5352C42.1578 23.5352 41.6099 24.0831 41.6099 24.759C41.6099 27.4628 39.418 29.6547 36.7142 29.6547C34.0104 29.6547 31.8185 27.4628 31.8185 24.759C31.8185 22.0553 34.0104 19.8634 36.7142 19.8634C37.3902 19.8634 37.9381 19.3155 37.9381 18.6395C37.9381 17.9635 37.3902 17.4156 36.7142 17.4156C33.4275 17.4083 30.5362 19.5857 29.6354 22.7466C28.7347 25.9075 30.0438 29.2819 32.8406 31.0082C35.6375 32.7345 39.2407 32.3923 41.6625 30.1702C41.929 32.7585 44.1787 34.683 46.777 34.5455C49.3755 34.4078 51.4095 32.2566 51.4013 29.6545Z" fill="#5F7D95"/>
</svg>
