<svg width="32" height="31" viewBox="0 0 32 31" fill="none" xmlns="http://www.w3.org/2000/svg">
<path d="M25.7912 13.9523C22.4349 13.9523 19.2962 12.5275 17.0934 10.0252C18.6376 9.55555 19.7647 8.11862 19.7647 6.42294C19.7647 5.56301 19.245 4.42237 18.1759 2.93569C17.3373 1.76963 16.6672 1.05246 16 0.307861C15.3378 1.04681 14.6776 1.74905 13.8241 2.93569C12.755 4.42237 12.2353 5.56308 12.2353 6.42294C12.2353 8.11862 13.3624 9.55555 14.9066 10.0252C12.7038 12.5275 9.56505 13.9523 6.20882 13.9523H0V14.8935C0 23.7363 7.15608 30.8935 16 30.8935C24.8428 30.8935 32 23.7374 32 14.8935V13.9523H25.7912ZM14.1176 6.42294C14.1176 5.82309 15.002 4.42225 15.9996 3.17481C16.9998 4.42902 17.8824 5.83997 17.8824 6.42294C17.8824 7.46087 17.0379 8.30529 16 8.30529C14.9621 8.30529 14.1176 7.46087 14.1176 6.42294ZM16 29.0112C9.8651 29.0112 4.63247 25.0769 2.68988 19.5994H29.3101C27.3675 25.0769 22.1348 29.0112 16 29.0112ZM29.833 17.7171H2.16703C2.04185 17.1029 1.9557 16.4747 1.91335 15.8347H6.20882C9.89823 15.8347 13.4364 14.3225 16 11.6188C18.5597 14.3185 22.096 15.8347 25.7912 15.8347H30.0867C30.0443 16.4747 29.9582 17.1029 29.833 17.7171Z" fill="#5861A2"/>
</svg>
